<svg id="Livello_1" data-name="Livello 1" xmlns="http://www.w3.org/2000/svg" xmlns:xlink="http://www.w3.org/1999/xlink" width="70.57mm" height="8.15mm" viewBox="0 0 200.05 23.11">
  <defs>
    <style>
      .cls-1 {
        fill: none;
      }

      .cls-2 {
        clip-path: url(#clip-path);
      }

      .cls-3 {
        fill: #91aa24;
      }

      .cls-4 {
        fill: #9fc41f;
      }

      .cls-5 {
        fill: #b8ce30;
      }

      .cls-6 {
        fill: #fafafa;
      }
    </style>
    <clipPath id="clip-path">
      <rect class="cls-1" x="0.01" width="200" height="23.09"/>
    </clipPath>
  </defs>
  <g class="cls-2">
    <g>
      <path class="cls-3" d="M165.72,9.73l-1-3.13.14-2.07-2.08-.87L163,3.2s-1,.24-1.33,0-.32-.47-.17-.69.56-.84,0-1.13-1.54.13-1.54.13a10.46,10.46,0,0,0-1.44.85,4.92,4.92,0,0,1-2.62.47,5.09,5.09,0,0,0-2.94.27,20.56,20.56,0,0,0-3.78,2.31,10.77,10.77,0,0,0-2.68,3.11c-.32.86,1.25,3.14,1.25,3.14l.84,4.41,2.87,5.4,1.52,1.12a6.75,6.75,0,0,0,2.77.51s4.84.23,8-3.09,2.85-5.71,2.85-5.71a3.41,3.41,0,0,0-.28-1.13,1.48,1.48,0,0,1-.07-.78,1.4,1.4,0,0,1,.36-.69C166.9,11.31,165.72,9.73,165.72,9.73ZM156,19.25a6.08,6.08,0,0,1-4.3-10.38,6.08,6.08,0,0,1,9.36.92,6.08,6.08,0,0,1-5,9.46Z"/>
      <path class="cls-3" d="M163.59,1.62A.42.42,0,0,0,164,1.2a.41.41,0,0,0-.42-.41.41.41,0,0,0-.41.41A.41.41,0,0,0,163.59,1.62Z"/>
      <path class="cls-3" d="M168.2,9.81a.61.61,0,0,0,.61-.61.62.62,0,0,0-.61-.61.61.61,0,0,0-.61.61A.61.61,0,0,0,168.2,9.81Z"/>
      <path class="cls-4" d="M170.89,1.58a.79.79,0,0,0,0-1.58.79.79,0,0,0,0,1.58Z"/>
      <path class="cls-4" d="M171.3,2.56c-1.12,0-2.52,1.38-3.08,1.8a2.59,2.59,0,0,1-1.73.58c-.37-.14-.51-.5-.32-1.08S168,2.41,168,2.41a.71.71,0,0,0,.23-.19.54.54,0,0,0,.11-.27.7.7,0,0,0,0-.29.55.55,0,0,0-.18-.24c-.57-.58-2.25.1-3.51.81a45.47,45.47,0,0,1-4.69,1.7c-1.81.74-7.14,1.28-7.14,1.28a9.91,9.91,0,0,0-4.6,1.2,6.56,6.56,0,0,0-2.31,3.08v1l.14,2,3.31.75.7-.17a6.11,6.11,0,0,1,2.75-5,6.17,6.17,0,0,1,2.79-1,6.08,6.08,0,0,1,4.83,10.37l.45-.36a15.56,15.56,0,0,0,2.39-2.84,10.09,10.09,0,0,1,3-2.49s.73-.24.88-.78-.69-1.28-1-2.07.6-1.63.6-1.63a14.85,14.85,0,0,1,3.45-1.84c2.17-.85,2.15-1.78,2.15-1.78a.9.9,0,0,0,0-.43,1,1,0,0,0-.21-.37,1,1,0,0,0-.36-.23.76.76,0,0,0-.42-.06Z"/>
      <path class="cls-5" d="M150.78,21.76s-4.94-2.49-5.37-7.52a9.16,9.16,0,0,1,.6-5s-.4,1.63.8,2.12a1.69,1.69,0,0,0,1.8,0,1.46,1.46,0,0,1,1.07-.31,1.4,1.4,0,0,1,.66.14,1.64,1.64,0,0,1,.53.42,1.13,1.13,0,0,0,.51.38A1.11,1.11,0,0,0,152,12a2.32,2.32,0,0,1,1.38,0,1.15,1.15,0,0,1,.38.38,1.12,1.12,0,0,1,.18.5,1.31,1.31,0,0,1-.23.84,1.37,1.37,0,0,1-.69.54c-.87.44-1.67.61-2.07,1.55s-.59,1.81-.07,2.41.85.74,1,1.22a4.37,4.37,0,0,0,.3,1.6,6.18,6.18,0,0,0,3.73,2.07,11.59,11.59,0,0,1-5.12-1.35Z"/>
      <path class="cls-6" d="M17.29,17.77H7.21a6.34,6.34,0,0,1-1.57-.16,2,2,0,0,1-1-.52,2.11,2.11,0,0,1-.52-1A6.8,6.8,0,0,1,4,14.48V4.58a.62.62,0,0,0,0-.27.56.56,0,0,0-.13-.24.7.7,0,0,0-.23-.15.63.63,0,0,0-.27,0H.7a.67.67,0,0,0-.28,0,.55.55,0,0,0-.24.15A.61.61,0,0,0,0,4.3a.54.54,0,0,0,0,.28V14.85A10.6,10.6,0,0,0,.4,17.92,4.59,4.59,0,0,0,1.64,20a5,5,0,0,0,2.19,1.17,13,13,0,0,0,3.23.35H17.29a.57.57,0,0,0,.26,0,.58.58,0,0,0,.36-.37.57.57,0,0,0,0-.26V18.42a.57.57,0,0,0,0-.26.6.6,0,0,0-.36-.36.57.57,0,0,0-.26,0Z"/>
      <path class="cls-6" d="M63.86,11h-9.3c-.81,0-1.18-.4-1.18-1.28V8.87a1.41,1.41,0,0,1,.27-.95,1.06,1.06,0,0,1,.43-.26,1,1,0,0,1,.51,0H67a.64.64,0,0,0,.5-.19.59.59,0,0,0,.14-.23.66.66,0,0,0,0-.28V4.58a.62.62,0,0,0,0-.27.72.72,0,0,0-.14-.24.61.61,0,0,0-.23-.15.63.63,0,0,0-.27,0H53.89a4.74,4.74,0,0,0-1.83.24,4.55,4.55,0,0,0-1.58.94,4.17,4.17,0,0,0-1.09,3V9.89a4.26,4.26,0,0,0,.22,1.73,4.36,4.36,0,0,0,.87,1.52,4.54,4.54,0,0,0,3.32,1.13h9.32c.8,0,1.18.41,1.18,1.28v1a1.5,1.5,0,0,1-.28,1,1.12,1.12,0,0,1-.43.27,1.06,1.06,0,0,1-.5.06h-13a.5.5,0,0,0-.27,0,.57.57,0,0,0-.38.36.51.51,0,0,0,0,.27v2.36a.51.51,0,0,0,0,.27.54.54,0,0,0,.15.22.59.59,0,0,0,.23.14.5.5,0,0,0,.27,0H63.81a4.52,4.52,0,0,0,1.82-.22,4.68,4.68,0,0,0,1.58-.93,4.22,4.22,0,0,0,1.1-3v-2a4.23,4.23,0,0,0-.24-1.73,4.28,4.28,0,0,0-.89-1.51,4.62,4.62,0,0,0-1.54-.91A4.7,4.7,0,0,0,63.86,11Z"/>
      <path class="cls-6" d="M91.46,3.93H80.55a12.6,12.6,0,0,0-3.23.36,5.16,5.16,0,0,0-2.19,1.16,4.62,4.62,0,0,0-1.24,2.08,10.21,10.21,0,0,0-.4,3.06v4.27a10.66,10.66,0,0,0,.4,3.07A4.59,4.59,0,0,0,75.13,20a5,5,0,0,0,2.19,1.16,13.05,13.05,0,0,0,3.23.35H91.46a.67.67,0,0,0,.28,0,.79.79,0,0,0,.23-.14.51.51,0,0,0,.15-.23.61.61,0,0,0,0-.27V18.49a.57.57,0,0,0,0-.26A.61.61,0,0,0,92,18a.72.72,0,0,0-.24-.14.8.8,0,0,0-.27,0H80.62a6.91,6.91,0,0,1-1.57-.15,2.2,2.2,0,0,1-1-.52,2,2,0,0,1-.51-1,7.25,7.25,0,0,1-.14-1.61v-.31h13.9a.62.62,0,0,0,.27,0,.72.72,0,0,0,.24-.14.57.57,0,0,0,.15-.23.63.63,0,0,0,0-.27v-2a.54.54,0,0,0,0-.28.68.68,0,0,0-.14-.25.52.52,0,0,0-.25-.14.54.54,0,0,0-.28,0H77.44v-.14a7.17,7.17,0,0,1,.15-1.6,2,2,0,0,1,.5-1,2.12,2.12,0,0,1,1-.51,6.28,6.28,0,0,1,1.56-.11H91.46a.72.72,0,0,0,.29,0A.58.58,0,0,0,92,7.44a.72.72,0,0,0,.14-.24.57.57,0,0,0,0-.29V4.58a.63.63,0,0,0,0-.27A.54.54,0,0,0,92,4.09.51.51,0,0,0,91.74,4a.54.54,0,0,0-.28,0Z"/>
      <path class="cls-6" d="M113.56,15.59a4.14,4.14,0,0,0,2.72-1.6,5.91,5.91,0,0,0,.89-3.45V9.15a5.49,5.49,0,0,0-1.27-3.9,5.64,5.64,0,0,0-4.15-1.32H98.4a.77.77,0,0,0-.85.85V20.85a.61.61,0,0,0,0,.27.51.51,0,0,0,.15.23.68.68,0,0,0,.23.14.65.65,0,0,0,.28,0H101a.57.57,0,0,0,.26,0,.64.64,0,0,0,.22-.14.55.55,0,0,0,.14-.23.57.57,0,0,0,0-.26V16h7.85l3.88,5.11a.73.73,0,0,0,.34.31.7.7,0,0,0,.45.06h3.19c.39,0,.49-.21.51-.33a.53.53,0,0,0,0-.25.51.51,0,0,0-.11-.22Zm-12-7.86c0-.09,0-.19.22-.19H111a2.29,2.29,0,0,1,.9.09,2.41,2.41,0,0,1,.81.42,2.29,2.29,0,0,1,.49,1.59v1a2.29,2.29,0,0,1-.49,1.59,2.29,2.29,0,0,1-1.71.51h-9.4Z"/>
      <path class="cls-6" d="M140.36,3.93H129.18a12.53,12.53,0,0,0-3.22.36,5.2,5.2,0,0,0-2.2,1.16,4.62,4.62,0,0,0-1.24,2.08h0a10.21,10.21,0,0,0-.39,3.06v4.27a10.31,10.31,0,0,0,.39,3.07A4.59,4.59,0,0,0,123.76,20a5,5,0,0,0,2.2,1.16,12.87,12.87,0,0,0,3.22.35h11.18a.57.57,0,0,0,.26,0,.64.64,0,0,0,.22-.14.49.49,0,0,0,.14-.23.57.57,0,0,0,0-.26V18.42a.57.57,0,0,0,0-.26.55.55,0,0,0-.14-.23.64.64,0,0,0-.22-.14.76.76,0,0,0-.26,0H129.3a7,7,0,0,1-1.58-.16,1.94,1.94,0,0,1-1-.52,2.09,2.09,0,0,1-.51-1,7.35,7.35,0,0,1-.15-1.62V11a6.71,6.71,0,0,1,.15-1.61,2.1,2.1,0,0,1,.51-1,1.94,1.94,0,0,1,1-.52,6.47,6.47,0,0,1,1.58-.16h11.06a.51.51,0,0,0,.27,0,.65.65,0,0,0,.23-.15.48.48,0,0,0,.13-.23A.5.5,0,0,0,141,7V4.58a.6.6,0,0,0,0-.26.6.6,0,0,0-.36-.36.57.57,0,0,0-.26,0Z"/>
      <path class="cls-6" d="M199.54,4.55a2.2,2.2,0,0,0-1.83-.62h-2.64a5.17,5.17,0,0,0-1,.07,1.86,1.86,0,0,0-.72.31,2,2,0,0,0-.56.6,5.93,5.93,0,0,0-.5,1l-5.15,11.9a.24.24,0,0,1-.1.12.21.21,0,0,1-.15,0h-.3a.2.2,0,0,1-.15,0,.2.2,0,0,1-.1-.12l-5.16-11.9a5.19,5.19,0,0,0-.49-1,2,2,0,0,0-.56-.6,1.8,1.8,0,0,0-.74-.31,5.11,5.11,0,0,0-1-.07h-2.7a2.12,2.12,0,0,0-1,.1,2.22,2.22,0,0,0-.85.53,3.48,3.48,0,0,0-.47,2.07V20.85a.5.5,0,0,0,0,.27.51.51,0,0,0,.15.23.59.59,0,0,0,.23.14.62.62,0,0,0,.27,0h2.53a.63.63,0,0,0,.27,0,.64.64,0,0,0,.22-.14.68.68,0,0,0,.14-.23.46.46,0,0,0,0-.26V7.9c0-.14.06-.14.09-.14h.23a.32.32,0,0,1,.14,0,.18.18,0,0,1,.09.12l5,11.1a6.93,6.93,0,0,0,.61,1.14,3.22,3.22,0,0,0,.69.78,2.37,2.37,0,0,0,.86.45,4.56,4.56,0,0,0,1.11.13h1.19a4.53,4.53,0,0,0,1.1-.13,2.41,2.41,0,0,0,.87-.45,4,4,0,0,0,.69-.78,7.78,7.78,0,0,0,.61-1.14l5-11.13c0-.08.1-.12.22-.12h.22s.09,0,.09.14v13a.57.57,0,0,0,0,.26.49.49,0,0,0,.14.23.64.64,0,0,0,.22.14.6.6,0,0,0,.26,0h2.53a.65.65,0,0,0,.28,0,.68.68,0,0,0,.23-.14.51.51,0,0,0,.15-.23.61.61,0,0,0,0-.27V6.62a3.49,3.49,0,0,0-.5-2.07Z"/>
      <path class="cls-6" d="M45.33,20.58l-2.86-5.25v0L38,7.06l-.76-1.38a5.53,5.53,0,0,0-.64-1A2.76,2.76,0,0,0,36,4.15a2.47,2.47,0,0,0-1.45-.4H32.79a2.7,2.7,0,0,0-1.39.36h0a2.37,2.37,0,0,0-.39.32l-.23.26c-.11.14-.23.29-.34.46l-.18.28-.12.22L30,5.8l-.07.1L27.81,9.82l-3,5.48-2.29,4.21L22,20.58a.7.7,0,0,0-.08.2.45.45,0,0,0,0,.28l.08.19h3.64a.77.77,0,0,0,.46-.13.63.63,0,0,0,.18-.21v0l.27-.5L33.42,7.61c.08-.13.15-.13.18-.13h.07a.21.21,0,0,1,.17.12L41,20.91a.83.83,0,0,0,.29.3.78.78,0,0,0,.4.08h3.23a.81.81,0,0,0,.22,0h.16l.09-.18a.31.31,0,0,0,0-.19.8.8,0,0,0-.11-.34Z"/>
    </g>
  </g>
</svg>
